<svg id="Layer_1" data-name="Layer 1" xmlns="http://www.w3.org/2000/svg" viewBox="0 0 32 32"><defs><style>.cls-1{fill:#48a2df;}.cls-2{fill:#fff;}</style></defs><title>book</title><circle class="cls-1" cx="16" cy="16" r="16"/><path class="cls-2" d="M16.28,8.84l0,12.75a1.11,1.11,0,0,0,1.22,1.11,38.5,38.5,0,0,1,7.93-.13,1.11,1.11,0,0,0,1.26-1.09c0-3.48.36-12.53,0.11-13.08-1-2.21-8.68-.88-9.7-0.63A1.11,1.11,0,0,0,16.28,8.84Z"/><path class="cls-2" d="M15.76,8.84l0,12.75a1.11,1.11,0,0,1-1.22,1.11,38.5,38.5,0,0,0-7.93-.13,1.11,1.11,0,0,1-1.26-1.09C5.28,18,5,8.94,5.21,8.39c1-2.21,8.68-.88,9.7-0.63A1.11,1.11,0,0,1,15.76,8.84Z"/><path class="cls-2" d="M28.22,8.73s-0.29,13.75-.33,14.84c-0.07,2.08-9.21-.42-10.3.89a2.29,2.29,0,0,1-3.18.07c-1.1-1.3-10.23,1.2-10.3-.89,0-1.08-.33-14.83-0.33-14.83l0.76-.1s-0.13,2-.07,4.13c0,0.87.07,5.3,0.2,9.12A3.25,3.25,0,0,0,5,23.48c0.49,0.88,1.25.24,2.36,0a11.12,11.12,0,0,1,1.83-.17,20.26,20.26,0,0,1,2.29,0c0.6,0,1.56.11,2.35,0.19A2.78,2.78,0,0,0,15,23.4a2.88,2.88,0,0,1,1.92-.07,3,3,0,0,0,1.26.13l2.36-.19a20.25,20.25,0,0,1,2.29,0,11.12,11.12,0,0,1,1.83.17c1.11,0.24,1.86.88,2.36,0a3.25,3.25,0,0,0,.29-1.52c0.12-3.82.17-8.24,0.2-9.11,0.06-2.13-.07-4.14-0.07-4.14Z"/><path class="cls-1" d="M25.24,18.51v-1s-4.11-1.75-7.33.1v0.92A9.23,9.23,0,0,1,25.24,18.51Z"/><path class="cls-1" d="M25.24,20.69v-1s-4.11-1.75-7.33.1v0.92A9.23,9.23,0,0,1,25.24,20.69Z"/><path class="cls-1" d="M25.24,16.52v-1s-4.11-1.75-7.33.1v0.92A9.23,9.23,0,0,1,25.24,16.52Z"/><path class="cls-1" d="M25.3,14.62v-1s-4.11-1.75-7.33.1v0.92A9.23,9.23,0,0,1,25.3,14.62Z"/><path class="cls-1" d="M25.3,12.72v-1S21.19,10,18,11.82v0.92A9.23,9.23,0,0,1,25.3,12.72Z"/><path class="cls-1" d="M25.3,10.72v-1S21.19,8,18,9.82v0.92A9.23,9.23,0,0,1,25.3,10.72Z"/><path class="cls-1" d="M14.07,18.51v-1s-4.11-1.75-7.33.1v0.92A9.23,9.23,0,0,1,14.07,18.51Z"/><path class="cls-1" d="M14.07,20.69v-1s-4.11-1.75-7.33.1v0.92A9.23,9.23,0,0,1,14.07,20.69Z"/><path class="cls-1" d="M14.07,16.52v-1s-4.11-1.75-7.33.1v0.92A9.23,9.23,0,0,1,14.07,16.52Z"/><path class="cls-1" d="M14.13,14.62v-1s-4.11-1.75-7.33.1v0.92A9.23,9.23,0,0,1,14.13,14.62Z"/><path class="cls-1" d="M14.13,12.72v-1S10,10,6.8,11.82v0.92A9.23,9.23,0,0,1,14.13,12.72Z"/><path class="cls-1" d="M14.13,10.72v-1S10,8,6.8,9.82v0.92A9.23,9.23,0,0,1,14.13,10.72Z"/></svg>