<svg id="Layer_1" data-name="Layer 1" xmlns="http://www.w3.org/2000/svg" viewBox="0 0 32 32"><defs><style>.cls-1{fill:#48a2df;}.cls-2{fill:#fff;}</style></defs><title>book</title><circle class="cls-1" cx="16" cy="16" r="16"/><path class="cls-2" d="M4.78,22.37c0-2.26-.05-13.55.12-13.72a11.53,11.53,0,0,1,5.64-1.37,11.89,11.89,0,0,1,3.63.56l1.28,0.39,1.28-.39a11.89,11.89,0,0,1,3.63-.56A11.52,11.52,0,0,1,26,8.65c0.18,0.17.13,11.46,0.12,13.72a0.64,0.64,0,0,1-.64.64h0l-10,.08h0L5.42,23h0A0.64,0.64,0,0,1,4.78,22.37Z" transform="translate(0 0)"/><path class="cls-1" d="M24,19.1v-1s-4.11-1.75-7.33.1l0,0.92A9.23,9.23,0,0,1,24,19.1Z" transform="translate(0 0)"/><path class="cls-1" d="M24,17.11v-1s-4.11-1.75-7.33.1l0,0.92A9.23,9.23,0,0,1,24,17.11Z" transform="translate(0 0)"/><path class="cls-1" d="M24.06,15.21v-1s-4.11-1.75-7.33.1l0,0.92A9.23,9.23,0,0,1,24.06,15.21Z" transform="translate(0 0)"/><path class="cls-1" d="M24.06,13.31v-1s-4.11-1.75-7.33.1l0,0.92A9.23,9.23,0,0,1,24.06,13.31Z" transform="translate(0 0)"/><path class="cls-1" d="M24.06,11.31v-1s-4.11-1.75-7.33.1l0,0.92A9.23,9.23,0,0,1,24.06,11.31Z" transform="translate(0 0)"/><path class="cls-1" d="M14.18,19.1v-1s-4.11-1.75-7.33.1l0,0.92A9.23,9.23,0,0,1,14.18,19.1Z" transform="translate(0 0)"/><path class="cls-1" d="M14.18,17.11v-1s-4.11-1.75-7.33.1l0,0.92A9.23,9.23,0,0,1,14.18,17.11Z" transform="translate(0 0)"/><path class="cls-1" d="M14.21,15.21v-1s-4.11-1.75-7.33.1l0,0.92A9.23,9.23,0,0,1,14.21,15.21Z" transform="translate(0 0)"/><path class="cls-1" d="M14.21,13.31v-1s-4.11-1.75-7.33.1l0,0.92A9.23,9.23,0,0,1,14.21,13.31Z" transform="translate(0 0)"/><path class="cls-1" d="M14.22,11.31v-1s-4.11-1.75-7.33.1l0,0.92A9.23,9.23,0,0,1,14.22,11.31Z" transform="translate(0 0)"/></svg>