<svg id="Layer_1" data-name="Layer 1" xmlns="http://www.w3.org/2000/svg" viewBox="0 0 40 40"><defs><style>.cls-1{fill:#48a2df;}</style></defs><title>circle2</title><circle class="cls-1" cx="20" cy="20" r="20"/><rect class="cls-1" x="14.62" y="11.06" width="1.78" height="2.14" rx="0.43" ry="0.43" transform="translate(33.28 6.11) rotate(127.9)"/><rect class="cls-1" x="15.5" y="14.62" width="1.78" height="2.22" rx="0.43" ry="0.43"/><circle class="cls-1" cx="16.31" cy="12.9" r="1.1"/><rect class="cls-1" x="23.51" y="16.73" width="0.88" height="1.06" rx="0.23" ry="0.23" transform="translate(-6.88 15.14) rotate(-34.05)"/><rect class="cls-1" x="24.18" y="15.87" width="0.88" height="1.1" rx="0.23" ry="0.23" transform="translate(0.06 33.51) rotate(-71.94)"/><rect class="cls-1" x="24.02" y="14.72" width="0.88" height="1.1" rx="0.23" ry="0.23" transform="translate(20.61 42.77) rotate(-116.94)"/><rect class="cls-1" x="22.02" y="14.22" width="0.88" height="1.06" rx="0.23" ry="0.23" transform="translate(48.01 13.18) rotate(145.95)"/><rect class="cls-1" x="21.34" y="15.02" width="0.88" height="1.1" rx="0.23" ry="0.23" transform="translate(42.02 -1.53) rotate(108.06)"/><rect class="cls-1" x="21.45" y="16.13" width="0.88" height="1.1" rx="0.23" ry="0.23" transform="translate(25.52 -11.63) rotate(63.06)"/><rect class="cls-1" x="22.32" y="16.83" width="0.88" height="1.1" rx="0.23" ry="0.23" transform="translate(5.19 -7.43) rotate(18.06)"/><rect class="cls-1" x="23.18" y="14.06" width="0.88" height="1.1" rx="0.23" ry="0.23" transform="translate(4.37 -7.83) rotate(18.06)"/><circle class="cls-1" cx="23.16" cy="16.03" r="0.55" transform="translate(-0.58 31.85) rotate(-71.94)"/><path class="cls-1" d="M24.83,13.39l-0.4.26A0.31,0.31,0,0,1,24,13.58L23.61,13a0.3,0.3,0,0,1,.08-0.42l0.4-.26a0.31,0.31,0,0,1,.43.08L24.91,13A0.3,0.3,0,0,1,24.83,13.39Z" transform="translate(-1.32 -1.23)"/><path class="cls-1" d="M25.39,10.08l0.22,0.42a0.3,0.3,0,0,1-.13.4l-0.67.33a0.31,0.31,0,0,1-.41-0.13l-0.22-.42a0.3,0.3,0,0,1,.13-0.4L25,9.95A0.31,0.31,0,0,1,25.39,10.08Z" transform="translate(-1.32 -1.23)"/><path class="cls-1" d="M20.84,11L21,10.53a0.31,0.31,0,0,1,.39-0.19l0.72,0.23a0.3,0.3,0,0,1,.2.38l-0.15.45a0.31,0.31,0,0,1-.39.19L21,11.35A0.3,0.3,0,0,1,20.84,11Z" transform="translate(-1.32 -1.23)"/><path class="cls-1" d="M21.21,12.8L21,12.38a0.3,0.3,0,0,1,.13-0.4l0.67-.33a0.31,0.31,0,0,1,.41.13l0.22,0.42a0.3,0.3,0,0,1-.13.4l-0.67.33A0.31,0.31,0,0,1,21.21,12.8Z" transform="translate(-1.32 -1.23)"/><path class="cls-1" d="M22.8,13.84l-0.46-.15a0.3,0.3,0,0,1-.2-0.38l0.23-.7a0.31,0.31,0,0,1,.39-0.19l0.46,0.15a0.3,0.3,0,0,1,.2.38l-0.23.7A0.31,0.31,0,0,1,22.8,13.84Z" transform="translate(-1.32 -1.23)"/><path class="cls-1" d="M23.86,10.5l-0.46-.15a0.3,0.3,0,0,1-.2-0.38l0.23-.7a0.31,0.31,0,0,1,.39-0.19l0.46,0.15a0.3,0.3,0,0,1,.2.38l-0.23.7A0.31,0.31,0,0,1,23.86,10.5Z" transform="translate(-1.32 -1.23)"/></svg>