<?xml version="1.0" encoding="utf-8"?>
<!-- Generator: Adobe Illustrator 19.2.1, SVG Export Plug-In . SVG Version: 6.00 Build 0)  -->
<svg version="1.1" id="Layer_1" xmlns="http://www.w3.org/2000/svg" xmlns:xlink="http://www.w3.org/1999/xlink" x="0px" y="0px"
	 viewBox="0 0 43 43" style="enable-background:new 0 0 43 43;" xml:space="preserve">
<style type="text/css">
	.st0{fill:#48A2DF;}
	.st1{fill:#FFFFFF;}
</style>
<g>
	<g>
		<circle class="st0" cx="21.7" cy="21.4" r="20"/>
		<path class="st1" d="M12.1,14.9c0,0.5,0,1,0,1.5c0,0.1,0,0.1,0,0.2c0.1,0.9,0.3,1.7,0.7,2.5c0.4,0.8,0.8,1.5,1,2.4
			c0.2,1,0.5,1.9,0.2,2.9c-0.3,1.3-0.6,2.5-1,3.7c-0.1,0.3-0.2,0.6-0.3,0.9c0.1,0,11.8,5.7,12.7,6.3c-2.9-6.9-1.4-7.8-1.2-8.3
			c0.2-0.5,0.6-0.5,1.1-0.5c0.2,0,0.3,0,0.5,0c0.8,0,1.5,0.1,2.3,0.1c0.6,0,0.8-0.4,1-0.9c0.2-0.5,0.1-0.7,0.1-1.2
			c0-0.5,0.1-1.5,0.6-1.5c0.3,0,0.5-0.7,0.2-0.9c0.4,0,0.6-0.6,0.2-0.9c0,0-0.3-0.8,0.3-0.8c0,0,0,0,0,0c0.4,0,0.6-0.6,0.7-1
			c0-0.2,0.1-0.4-1.7-2.1c-0.4-0.4-0.7-1.8-0.5-2.1c0.4-0.4,0.4-0.9,0.3-1.4c-0.2-1.6-1.5-3.5-1.6-3.7c-0.9-1-1.3-1.2-2.5-1.8
			c-1.7-0.7-3.5-1-5.3-0.8c-0.3,0-0.7,0-1,0.1c-1.1,0.1-2.1,0.3-3.1,0.8c-2.1,1.1-3.3,2.8-3.6,5.2C12.2,14,12.1,14.5,12.1,14.9z"/>
	</g>
	<g>
		<g id="XMLID_1_">
			<g>
				<path class="st1" d="M16.4,15.9c0.3-0.1,0.4-0.4,0.3-0.7c-0.1-0.2-0.3-0.4-0.6-0.4c0,0-0.1,0-0.2,0c-0.3,0.1-0.4,0.4-0.3,0.7
					C15.7,15.8,16.1,16,16.4,15.9z M14.7,15.7c-0.2-0.7,0.2-1.4,0.9-1.7c0.2-0.1,0.4-0.1,0.5-0.1c0.8,0,1.4,0.4,1.5,1.1
					c0.2,0.7-0.2,1.5-0.9,1.8C15.9,17.1,14.9,16.6,14.7,15.7z"/>
				<path class="st0" d="M16.8,15.2c0.1,0.3-0.1,0.6-0.3,0.7c-0.3,0.1-0.7-0.1-0.8-0.4c-0.1-0.3,0.1-0.5,0.3-0.7c0.1,0,0.2,0,0.2,0
					C16.5,14.8,16.7,15,16.8,15.2z"/>
				<path class="st0" d="M15.6,14c-0.7,0.3-1,1-0.9,1.7c0.2,0.9,1.2,1.4,2.1,1.1c0.7-0.3,1.1-1,0.9-1.8c-0.2-0.6-0.8-1.1-1.5-1.1
					C16,13.9,15.8,13.9,15.6,14z M18.3,14.4c0,0.1,0.1,0.2,0.1,0.2c0,0,0,0.1,0.1,0.1c0.2,0.1,0.4,0.1,0.6,0.2
					c0.1,0,0.1,0.1,0.2,0.1c0,0.1,0,0.2,0,0.3c0,0.1,0,0.2,0,0.3c0,0.1,0,0.1-0.1,0.1c-0.1,0.1-0.3,0.1-0.4,0.2
					c-0.1,0-0.2,0.1-0.3,0.1c0,0-0.1,0-0.1,0.1c0,0.1-0.1,0.2-0.1,0.3c0,0,0,0.1,0,0.1c0.1,0.2,0.2,0.4,0.3,0.6
					c0.1,0.1,0.1,0.1,0,0.2c-0.1,0.1-0.2,0.2-0.4,0.3c0,0-0.1,0-0.1,0c-0.1,0-0.2-0.1-0.4-0.1c-0.1-0.1-0.3-0.1-0.4-0.2
					c0,0-0.1,0-0.1,0c-0.1,0-0.2,0.1-0.3,0.1c0,0-0.1,0-0.1,0.1c-0.1,0.2-0.1,0.4-0.2,0.6c0,0.1-0.1,0.1-0.1,0.2c-0.2,0-0.4,0-0.7,0
					c0,0-0.1,0-0.1-0.1c-0.1-0.1-0.1-0.3-0.2-0.4c0-0.1-0.1-0.2-0.1-0.3c0,0,0-0.1-0.1-0.1c-0.1,0-0.2-0.1-0.3-0.1c0,0-0.1,0-0.1,0
					c-0.2,0.1-0.4,0.2-0.6,0.2c-0.1,0-0.1,0-0.2,0.1c0,0-0.1,0-0.1,0c-0.1-0.1-0.3-0.3-0.4-0.4c0,0,0-0.1,0-0.1
					c0-0.1,0.1-0.3,0.1-0.4c0-0.1,0.1-0.2,0.1-0.3c0,0,0-0.1,0-0.1c0-0.1-0.1-0.2-0.1-0.3c0,0,0-0.1-0.1-0.1
					c-0.2-0.1-0.4-0.2-0.6-0.2c0,0-0.1,0-0.1-0.1c0,0,0,0,0-0.1c0-0.2,0-0.4,0-0.6c0,0,0-0.1,0-0.1c0.1,0,0.1-0.1,0.2-0.1
					c0.2-0.1,0.4-0.2,0.6-0.2c0,0,0.1,0,0.1-0.1c0-0.1,0.1-0.2,0.1-0.3c0,0,0-0.1,0-0.1c-0.1-0.2-0.2-0.4-0.3-0.7c0,0,0,0,0,0
					c0,0,0-0.1,0-0.1c0.1-0.1,0.3-0.2,0.4-0.4c0,0,0.1,0,0.1,0c0.2,0.1,0.3,0.1,0.5,0.2c0.1,0,0.2,0.1,0.2,0.1c0,0,0.1,0,0.1,0
					c0.1,0,0.2-0.1,0.3-0.1c0,0,0.1,0,0.1-0.1c0.1-0.2,0.2-0.4,0.2-0.6c0-0.1,0-0.1,0.1-0.2c0,0,0,0,0.1,0c0.2,0,0.4,0,0.6,0
					c0,0,0.1,0,0.1,0c0,0.1,0.1,0.2,0.1,0.3c0.1,0.1,0.1,0.3,0.2,0.4c0,0,0,0.1,0.1,0.1c0.1,0,0.2,0.1,0.3,0.1c0,0,0.1,0,0.1,0
					c0.2-0.1,0.4-0.2,0.6-0.3c0,0,0.1-0.1,0.2,0c0,0,0.1,0.1,0.1,0.1c0.1,0.1,0.2,0.2,0.3,0.3c0,0,0,0.1,0,0.1
					c0,0.1-0.1,0.2-0.1,0.3c-0.1,0.1-0.1,0.3-0.2,0.4C18.3,14.3,18.3,14.3,18.3,14.4z"/>
			</g>
		</g>
	</g>
	<g>
		<g id="XMLID_2_">
			<g>
				<path class="st1" d="M20.4,10.2c0.2,0.6-0.1,1.1-0.7,1.4c-0.7,0.3-1.4-0.1-1.6-0.8c-0.1-0.5,0.2-1.1,0.7-1.3
					c0.1-0.1,0.3-0.1,0.4-0.1C19.8,9.4,20.2,9.7,20.4,10.2z M19.1,10.1c-0.2,0.1-0.3,0.3-0.3,0.5c0.1,0.3,0.4,0.4,0.6,0.3
					c0.2-0.1,0.3-0.3,0.3-0.5c-0.1-0.2-0.2-0.3-0.5-0.3C19.2,10,19.1,10.1,19.1,10.1z"/>
				<path class="st0" d="M18.8,10.6c0-0.2,0.1-0.4,0.3-0.5c0.1,0,0.1,0,0.1,0c0.2,0,0.4,0.1,0.5,0.3c0.1,0.2,0,0.4-0.3,0.5
					C19.2,11,18.9,10.9,18.8,10.6z"/>
				<path class="st0" d="M19,12.7c0-0.1-0.1-0.2-0.1-0.3c0-0.1-0.1-0.1-0.1-0.2c0,0,0,0-0.1-0.1c-0.1,0-0.1-0.1-0.2-0.1
					c0,0-0.1,0-0.1,0c-0.1,0.1-0.3,0.1-0.4,0.2c0,0-0.1,0-0.1,0c0,0,0,0-0.1,0c-0.1-0.1-0.2-0.2-0.3-0.3c0,0,0,0,0-0.1
					c0-0.1,0.1-0.2,0.1-0.3c0-0.1,0.1-0.2,0.1-0.3c0,0,0,0,0-0.1c0-0.1-0.1-0.1-0.1-0.2c0,0,0,0-0.1-0.1c-0.2-0.1-0.3-0.1-0.5-0.2
					c0,0-0.1,0-0.1,0c0,0,0,0,0,0c0-0.1,0-0.3,0-0.4c0,0,0,0,0-0.1c0,0,0.1,0,0.1-0.1c0.1-0.1,0.3-0.1,0.4-0.2c0,0,0,0,0.1-0.1
					c0-0.1,0.1-0.1,0.1-0.2c0,0,0-0.1,0-0.1c-0.1-0.2-0.1-0.3-0.2-0.5c0,0,0,0,0,0c0,0,0-0.1,0-0.1c0.1-0.1,0.2-0.2,0.3-0.3
					c0,0,0.1,0,0.1,0c0.1,0,0.3,0.1,0.4,0.1c0.1,0,0.1,0,0.2,0.1c0,0,0,0,0.1,0c0.1,0,0.1-0.1,0.2-0.1c0,0,0,0,0.1-0.1
					c0.1-0.1,0.1-0.3,0.2-0.4c0,0,0-0.1,0.1-0.1c0,0,0,0,0,0c0.2,0,0.3,0,0.5,0c0,0,0,0,0.1,0c0,0.1,0.1,0.1,0.1,0.2
					c0,0.1,0.1,0.2,0.1,0.3c0,0,0,0,0.1,0.1c0.1,0,0.1,0.1,0.2,0.1c0,0,0.1,0,0.1,0c0.2-0.1,0.3-0.1,0.5-0.2c0,0,0.1,0,0.1,0
					c0,0,0.1,0,0.1,0.1C20.9,8.8,21,8.9,21.1,9c0,0,0,0,0,0.1c0,0.1-0.1,0.2-0.1,0.2c0,0.1-0.1,0.2-0.1,0.3c0,0,0,0.1,0,0.1
					c0,0.1,0.1,0.1,0.1,0.2c0,0,0,0,0.1,0.1c0.2,0.1,0.3,0.1,0.5,0.2c0.1,0,0.1,0,0.1,0.1c0,0.1,0,0.1,0,0.2c0,0.1,0,0.2,0,0.3
					c0,0.1,0,0.1-0.1,0.1c-0.1,0-0.2,0.1-0.3,0.1c-0.1,0-0.2,0.1-0.2,0.1c0,0,0,0-0.1,0.1c0,0.1-0.1,0.1-0.1,0.2c0,0,0,0,0,0.1
					c0.1,0.2,0.1,0.3,0.2,0.5c0,0.1,0,0.1,0,0.2c-0.1,0.1-0.2,0.2-0.3,0.3c0,0,0,0-0.1,0c-0.1,0-0.2-0.1-0.3-0.1
					c-0.1,0-0.2-0.1-0.3-0.1c0,0-0.1,0-0.1,0c-0.1,0-0.1,0.1-0.2,0.1c0,0,0,0-0.1,0.1c-0.1,0.1-0.1,0.3-0.2,0.4c0,0.1,0,0.1-0.1,0.1
					C19.4,12.8,19.2,12.8,19,12.7C19,12.8,19,12.8,19,12.7z M19.7,11.5c0.5-0.2,0.8-0.8,0.7-1.4c-0.1-0.5-0.6-0.8-1.2-0.8
					c-0.1,0-0.2,0-0.4,0.1c-0.5,0.2-0.8,0.8-0.7,1.3C18.3,11.4,19,11.8,19.7,11.5z"/>
			</g>
		</g>
	</g>
	<g>
		<g id="XMLID_3_">
			<g>
				<path class="st1" d="M21.8,14.7c0.2-0.1,0.3-0.3,0.3-0.5c-0.1-0.2-0.2-0.3-0.5-0.3c0,0-0.1,0-0.1,0c-0.2,0.1-0.3,0.3-0.3,0.5
					C21.2,14.7,21.5,14.8,21.8,14.7z M22.7,14c0.2,0.6-0.1,1.1-0.7,1.4c-0.7,0.3-1.4-0.1-1.6-0.8c-0.1-0.5,0.2-1.1,0.7-1.3
					c0.1-0.1,0.3-0.1,0.4-0.1C22.1,13.2,22.6,13.5,22.7,14z"/>
				<path class="st0" d="M21.8,14.7c-0.3,0.1-0.6,0-0.6-0.3c0-0.2,0.1-0.4,0.3-0.5c0.1,0,0.1,0,0.1,0c0.2,0,0.4,0.1,0.5,0.3
					C22.1,14.4,22,14.6,21.8,14.7z"/>
				<path class="st0" d="M23.4,12.8C23.4,12.9,23.4,12.9,23.4,12.8c0,0.1,0,0.2-0.1,0.3c0,0.1-0.1,0.2-0.1,0.3c0,0,0,0.1,0,0.1
					c0,0.1,0.1,0.1,0.1,0.2c0,0,0,0,0.1,0.1c0.2,0.1,0.3,0.1,0.5,0.2c0.1,0,0.1,0,0.1,0.1c0,0.1,0,0.1,0,0.2c0,0.1,0,0.2,0,0.3
					c0,0,0,0.1-0.1,0.1c-0.1,0-0.2,0.1-0.3,0.1c-0.1,0-0.2,0.1-0.2,0.1c0,0,0,0-0.1,0.1c0,0.1-0.1,0.1-0.1,0.2c0,0,0,0,0,0.1
					c0.1,0.2,0.1,0.3,0.2,0.5c0,0.1,0,0.1,0,0.2c-0.1,0.1-0.2,0.2-0.3,0.3c0,0,0,0-0.1,0c-0.1,0-0.2-0.1-0.3-0.1
					c-0.1,0-0.2-0.1-0.3-0.1c0,0-0.1,0-0.1,0c-0.1,0-0.1,0.1-0.2,0.1c0,0,0,0-0.1,0.1c-0.1,0.1-0.1,0.3-0.2,0.4c0,0,0,0.1-0.1,0.1
					c-0.2,0-0.3,0-0.5,0c0,0,0,0-0.1,0c0-0.1-0.1-0.2-0.1-0.3c0-0.1-0.1-0.1-0.1-0.2c0,0,0,0-0.1-0.1c-0.1,0-0.1-0.1-0.2-0.1
					c0,0-0.1,0-0.1,0c-0.1,0.1-0.3,0.1-0.4,0.2c0,0-0.1,0-0.1,0c0,0,0,0-0.1,0c-0.1-0.1-0.2-0.2-0.3-0.3c0,0,0,0,0-0.1
					c0-0.1,0.1-0.2,0.1-0.3c0-0.1,0.1-0.2,0.1-0.3c0,0,0,0,0-0.1c0-0.1-0.1-0.1-0.1-0.2c0,0,0,0-0.1-0.1c-0.2-0.1-0.3-0.1-0.5-0.2
					c0,0-0.1,0-0.1,0c0,0,0,0,0,0c0-0.1,0-0.3,0-0.4c0,0,0,0,0-0.1c0,0,0.1,0,0.1-0.1c0.1-0.1,0.3-0.1,0.4-0.2c0,0,0,0,0.1-0.1
					c0-0.1,0.1-0.1,0.1-0.2c0,0,0-0.1,0-0.1c-0.1-0.2-0.1-0.3-0.2-0.5c0,0,0,0,0,0c0,0,0-0.1,0-0.1c0.1-0.1,0.2-0.2,0.3-0.3
					c0,0,0.1,0,0.1,0c0.1,0,0.3,0.1,0.4,0.1c0.1,0,0.1,0,0.2,0.1c0,0,0,0,0.1,0c0.1,0,0.1-0.1,0.2-0.1c0,0,0,0,0.1-0.1
					c0.1-0.1,0.1-0.3,0.2-0.4c0,0,0-0.1,0.1-0.1c0,0,0,0,0,0c0.2,0,0.3,0,0.5,0c0,0,0,0,0.1,0c0,0.1,0.1,0.1,0.1,0.2
					c0,0.1,0.1,0.2,0.1,0.3c0,0,0,0,0.1,0.1c0.1,0,0.1,0.1,0.2,0.1c0,0,0.1,0,0.1,0c0.2-0.1,0.3-0.1,0.5-0.2c0,0,0.1,0,0.1,0
					c0,0,0.1,0,0.1,0.1C23.2,12.7,23.3,12.8,23.4,12.8z M22.1,15.4c0.5-0.2,0.8-0.8,0.7-1.4c-0.1-0.5-0.6-0.8-1.2-0.8
					c-0.1,0-0.2,0-0.4,0.1c-0.5,0.2-0.8,0.8-0.7,1.3C20.6,15.3,21.4,15.6,22.1,15.4z"/>
			</g>
		</g>
	</g>
</g>
</svg>
