<?xml version="1.0" encoding="utf-8"?>
<!-- Generator: Adobe Illustrator 16.0.0, SVG Export Plug-In . SVG Version: 6.00 Build 0)  -->
<!DOCTYPE svg PUBLIC "-//W3C//DTD SVG 1.1//EN" "http://www.w3.org/Graphics/SVG/1.1/DTD/svg11.dtd">
<svg version="1.1" xmlns="http://www.w3.org/2000/svg" xmlns:xlink="http://www.w3.org/1999/xlink" x="0px" y="0px" width="512px"
	 height="512px" viewBox="0 0 512 512" enable-background="new 0 0 512 512" xml:space="preserve">
<g id="Layer_2">
</g>
<g id="Layer_1">
	<g>
		<g id="XMLID_1_">
			<g>
				<path fill="#FFFFFF" d="M393.25,101.21c26.78,33.51,43.05,94.92,20.46,142.73c-4.89,10.36-12.05,20.89-19.64,32.03
					c-17.37,25.53-37.061,54.46-27.58,84.101c0.7,2.189,0.09,4.58-1.58,6.17L257.62,468.63c-1.13,1.08-2.62,1.66-4.14,1.66
					c-0.55,0-1.1-0.08-1.64-0.23c-2.04-0.579-3.63-2.199-4.17-4.26c-6.61-25.34-24.89-67.67-45.83-73.34
					c-1.76-0.479-4.02-0.71-6.92-0.71c-5.19,0-11.67,0.75-18.53,1.54c-8.01,0.93-16.28,1.88-24.03,1.88
					c-17.42,0-26.79-5.39-28.64-16.5c-1.07-6.43-1.93-13.05-2.76-19.46c-3.49-26.95-7.1-54.82-27.87-68.97
					c-12.16-8.29-2.21-25.82,7.41-42.78c6.41-11.29,13.03-22.96,12.02-30.52c-0.38-2.82-0.77-5.6-1.14-8.33
					c-6.12-44.52-10.95-79.66,26.03-117.7c0.06-0.07,0.12-0.13,0.19-0.19c37.92-35.67,79.08-53.75,122.34-53.75
					C324.64,36.97,374.18,77.35,393.25,101.21z M369.14,167.59c1.94-0.52,3.091-2.51,2.57-4.45l-3.04-11.32
					c-0.52-1.94-2.51-3.09-4.45-2.57l-5.399,1.45c-1.181-1.92-2.57-3.73-4.15-5.4l2.8-4.84c1-1.74,0.41-3.96-1.33-4.96l-10.149-5.86
					c-1.74-1-3.971-0.41-4.971,1.34l-2.789,4.84c-2.23-0.53-4.5-0.83-6.75-0.89l-1.45-5.4c-0.521-1.94-2.511-3.09-4.45-2.57
					L314.26,130c-1.939,0.52-3.09,2.51-2.569,4.45l1.449,5.4c-1.92,1.18-3.729,2.57-5.399,4.15l-4.84-2.8
					c-1.74-1-3.96-0.4-4.96,1.34l-5.86,10.15c-1,1.73-0.41,3.96,1.33,4.96l4.85,2.79c-0.529,2.24-0.83,4.5-0.89,6.75l-5.4,1.45
					c-1.939,0.52-3.09,2.52-2.569,4.46l3.04,11.31c0.52,1.94,2.51,3.09,4.449,2.57l5.4-1.45c1.18,1.92,2.57,3.73,4.15,5.4
					l-2.801,4.84c-1,1.74-0.409,3.96,1.33,4.97l10.15,5.85c1.74,1.01,3.97,0.41,4.97-1.33l2.79-4.84c2.24,0.53,4.5,0.82,6.75,0.88
					l1.45,5.4c0.52,1.94,2.51,3.09,4.45,2.57l11.319-3.03c1.94-0.52,3.091-2.52,2.57-4.46l-1.45-5.4c1.92-1.18,3.73-2.57,5.4-4.14
					l4.84,2.79c1.74,1.01,3.96,0.41,4.97-1.33l5.851-10.15c1-1.74,0.41-3.96-1.33-4.97l-4.84-2.79c0.529-2.23,0.819-4.49,0.88-6.75
					L369.14,167.59z M309.08,229.85c1.46-0.4,2.33-1.9,1.939-3.37l-2.289-8.54c-0.4-1.46-1.9-2.33-3.36-1.94l-4.08,1.1
					c-0.89-1.45-1.94-2.82-3.13-4.08l2.109-3.65c0.761-1.31,0.311-2.99-1-3.75l-7.659-4.42c-1.32-0.76-2.99-0.3-3.75,1.01
					l-2.11,3.65c-1.68-0.4-3.39-0.62-5.09-0.67l-1.101-4.07c-0.39-1.47-1.89-2.33-3.359-1.94l-8.54,2.29
					c-1.46,0.39-2.33,1.9-1.94,3.36l1.101,4.08c-1.45,0.89-2.82,1.94-4.07,3.12l-3.66-2.1c-1.31-0.76-2.99-0.31-3.75,1l-4.42,7.66
					c-0.75,1.31-0.3,2.99,1.01,3.75l3.65,2.11c-0.39,1.68-0.62,3.39-0.66,5.09l-4.08,1.09c-1.46,0.39-2.33,1.9-1.94,3.37l2.29,8.54
					c0.4,1.46,1.9,2.33,3.37,1.94l4.07-1.1c0.89,1.45,1.94,2.82,3.13,4.08l-2.109,3.65c-0.761,1.31-0.311,2.99,1.01,3.75l7.66,4.42
					c1.31,0.75,2.989,0.3,3.739-1.011l2.11-3.649c1.69,0.4,3.39,0.62,5.09,0.66l1.101,4.081c0.39,1.46,1.89,2.33,3.359,1.939
					l8.54-2.29c1.46-0.39,2.33-1.899,1.94-3.36l-1.101-4.08c1.45-0.89,2.82-1.94,4.08-3.13l3.65,2.11c1.31,0.76,2.99,0.31,3.75-1
					l4.42-7.66c0.75-1.32,0.3-2.99-1.01-3.75l-3.65-2.11c0.4-1.68,0.62-3.39,0.66-5.09L309.08,229.85z M284.35,157.46
					c0.601-2.63-1.05-5.24-3.67-5.84l-7.31-1.65c-0.2-3.02-0.72-6.03-1.54-9l6.34-3.99c2.28-1.44,2.96-4.45,1.53-6.73l-8.37-13.29
					c-1.44-2.27-4.45-2.96-6.73-1.52l-6.34,3.99c-2.32-2.02-4.81-3.79-7.45-5.27l1.66-7.31c0.6-2.62-1.05-5.23-3.68-5.83
					l-15.31-3.48c-2.63-0.6-5.24,1.05-5.84,3.67l-1.66,7.32c-3.01,0.19-6.02,0.71-8.99,1.53l-3.99-6.34
					c-1.44-2.28-4.45-2.96-6.73-1.52l-13.29,8.37c-2.28,1.43-2.96,4.45-1.52,6.72l3.99,6.34c-2.02,2.32-3.79,4.81-5.27,7.45
					l-7.31-1.66c-2.62-0.59-5.24,1.05-5.83,3.68l-3.48,15.32c-0.6,2.62,1.05,5.23,3.67,5.83l7.32,1.66
					c0.19,3.01,0.71,6.03,1.53,8.99l-6.34,4c-2.28,1.43-2.96,4.44-1.53,6.72l8.38,13.29c1.43,2.28,4.44,2.96,6.72,1.53l6.34-4
					c2.32,2.03,4.81,3.79,7.45,5.27l-1.66,7.31c-0.59,2.63,1.05,5.24,3.68,5.83l15.32,3.48c2.62,0.6,5.23-1.05,5.83-3.67l1.66-7.31
					c3.01-0.2,6.03-0.71,8.99-1.54l4,6.34c1.43,2.28,4.44,2.96,6.72,1.53l13.29-8.38c2.28-1.43,2.96-4.44,1.53-6.72l-4-6.34
					c2.03-2.32,3.79-4.81,5.271-7.45l7.31,1.66c2.63,0.6,5.24-1.05,5.84-3.67L284.35,157.46z"/>
				<path fill="#FFFFFF" d="M330.55,156.38c6.48,0,11.74,5.26,11.74,11.74s-5.26,11.73-11.74,11.73
					c-6.47,0-11.729-5.25-11.729-11.73S324.08,156.38,330.55,156.38z"/>
				<circle fill="#FFFFFF" cx="279.96" cy="230.24" r="8.85"/>
				<path fill="#FFFFFF" d="M228.96,137.21c8.68,0,15.73,7.04,15.73,15.73c0,8.68-7.05,15.73-15.73,15.73
					c-8.69,0-15.73-7.05-15.73-15.73C213.23,144.25,220.27,137.21,228.96,137.21z"/>
			</g>
			<g>
			</g>
		</g>
	</g>
</g>
</svg>
