<svg id="Layer_1" data-name="Layer 1" xmlns="http://www.w3.org/2000/svg" viewBox="0 0 40 40"><defs><style>.cls-1{fill:#48a2df;}.cls-2{fill:#fff;}</style></defs><title>mind</title><circle class="cls-1" cx="20" cy="20" r="20"/><path class="cls-2" d="M12.1,14.9v1.7a7.17,7.17,0,0,0,.7,2.5,10.14,10.14,0,0,1,1,2.4,5.74,5.74,0,0,1,.2,2.9c-0.35,2.23-1.44,3-1.44,4.23,0,0.94,7.62,4,11.11,5.75a0.74,0.74,0,0,0,1-.9c-1.8-5.44.15-7,.59-7,0,0,1.87.1,2.8,0.1a1.06,1.06,0,0,0,1-.9,2.46,2.46,0,0,0,.1-1.2c0-.5.09-1.33,0.59-1.33A0.74,0.74,0,0,0,30,22.1a0.49,0.49,0,0,0,.2-0.9,1,1,0,0,1,.3-0.8h0a1,1,0,0,0,.44-1.65c-1.06-1,.14.16-1.66-1.54-0.4-.4.12-2.92,0-3.42-0.22-2.72-2.9-4.9-4.1-5.5a10.75,10.75,0,0,0-5.3-.8,3.4,3.4,0,0,0-1,.1,8.36,8.36,0,0,0-3.1.8,6.42,6.42,0,0,0-3.6,5.2C12.2,14,12.1,14.5,12.1,14.9Z" transform="translate(-1.32 -1.23)"/><rect class="cls-1" x="19.04" y="14.93" width="1.78" height="2.14" rx="0.43" ry="0.43" transform="translate(-6.25 20.67) rotate(-52.1)"/><rect class="cls-1" x="19.79" y="12.86" width="1.78" height="2.22" rx="0.43" ry="0.43" transform="translate(5.39 33.42) rotate(-90)"/><rect class="cls-1" x="18.77" y="10.76" width="1.78" height="2.22" rx="0.43" ry="0.43" transform="translate(23.85 32.94) rotate(-135)"/><rect class="cls-1" x="14.62" y="11.06" width="1.78" height="2.14" rx="0.43" ry="0.43" transform="translate(33.28 6.11) rotate(127.9)"/><rect class="cls-1" x="13.82" y="13.01" width="1.78" height="2.22" rx="0.43" ry="0.43" transform="translate(27.51 -1.82) rotate(90)"/><rect class="cls-1" x="14.74" y="15.05" width="1.78" height="2.22" rx="0.43" ry="0.43" transform="translate(14.68 -7.55) rotate(45)"/><rect class="cls-1" x="15.5" y="14.62" width="1.78" height="2.22" rx="0.43" ry="0.43"/><rect class="cls-1" x="15.42" y="8.79" width="1.78" height="2.22" rx="0.43" ry="0.43"/><circle class="cls-1" cx="16.39" cy="13.01" r="2.97"/><circle class="cls-2" cx="16.31" cy="12.9" r="2.15"/><circle class="cls-1" cx="16.31" cy="12.9" r="1.1"/><rect class="cls-1" x="23.51" y="16.73" width="0.88" height="1.06" rx="0.23" ry="0.23" transform="translate(-6.88 15.14) rotate(-34.05)"/><rect class="cls-1" x="24.18" y="15.87" width="0.88" height="1.1" rx="0.23" ry="0.23" transform="translate(0.06 33.51) rotate(-71.94)"/><rect class="cls-1" x="24.02" y="14.72" width="0.88" height="1.1" rx="0.23" ry="0.23" transform="translate(20.61 42.77) rotate(-116.94)"/><rect class="cls-1" x="22.02" y="14.22" width="0.88" height="1.06" rx="0.23" ry="0.23" transform="translate(48.01 13.18) rotate(145.95)"/><rect class="cls-1" x="21.34" y="15.02" width="0.88" height="1.1" rx="0.23" ry="0.23" transform="translate(42.02 -1.53) rotate(108.06)"/><rect class="cls-1" x="21.45" y="16.13" width="0.88" height="1.1" rx="0.23" ry="0.23" transform="translate(25.52 -11.63) rotate(63.06)"/><rect class="cls-1" x="22.32" y="16.83" width="0.88" height="1.1" rx="0.23" ry="0.23" transform="translate(5.19 -7.43) rotate(18.06)"/><rect class="cls-1" x="23.18" y="14.06" width="0.88" height="1.1" rx="0.23" ry="0.23" transform="translate(4.37 -7.83) rotate(18.06)"/><circle class="cls-1" cx="23.18" cy="16.09" r="1.47" transform="translate(-0.62 31.91) rotate(-71.94)"/><circle class="cls-2" cx="23.16" cy="16.03" r="1.07" transform="translate(-0.58 31.85) rotate(-71.94)"/><circle class="cls-1" cx="23.16" cy="16.03" r="0.55" transform="translate(-0.58 31.85) rotate(-71.94)"/><path class="cls-1" d="M24.83,13.39l-0.4.26A0.31,0.31,0,0,1,24,13.58L23.61,13a0.3,0.3,0,0,1,.08-0.42l0.4-.26a0.31,0.31,0,0,1,.43.08L24.91,13A0.3,0.3,0,0,1,24.83,13.39Z" transform="translate(-1.32 -1.23)"/><path class="cls-1" d="M25.81,12l-0.15.45a0.31,0.31,0,0,1-.39.19l-0.72-.23a0.3,0.3,0,0,1-.2-0.38l0.15-.45a0.31,0.31,0,0,1,.39-0.19l0.72,0.23A0.3,0.3,0,0,1,25.81,12Z" transform="translate(-1.32 -1.23)"/><path class="cls-1" d="M25.39,10.08l0.22,0.42a0.3,0.3,0,0,1-.13.4l-0.67.33a0.31,0.31,0,0,1-.41-0.13l-0.22-.42a0.3,0.3,0,0,1,.13-0.4L25,9.95A0.31,0.31,0,0,1,25.39,10.08Z" transform="translate(-1.32 -1.23)"/><path class="cls-1" d="M21.85,9.56l0.4-.26a0.31,0.31,0,0,1,.43.08l0.39,0.57a0.3,0.3,0,0,1-.08.42l-0.4.26a0.31,0.31,0,0,1-.43-0.08L21.76,10A0.3,0.3,0,0,1,21.85,9.56Z" transform="translate(-1.32 -1.23)"/><path class="cls-1" d="M20.84,11L21,10.53a0.31,0.31,0,0,1,.39-0.19l0.72,0.23a0.3,0.3,0,0,1,.2.38l-0.15.45a0.31,0.31,0,0,1-.39.19L21,11.35A0.3,0.3,0,0,1,20.84,11Z" transform="translate(-1.32 -1.23)"/><path class="cls-1" d="M21.21,12.8L21,12.38a0.3,0.3,0,0,1,.13-0.4l0.67-.33a0.31,0.31,0,0,1,.41.13l0.22,0.42a0.3,0.3,0,0,1-.13.4l-0.67.33A0.31,0.31,0,0,1,21.21,12.8Z" transform="translate(-1.32 -1.23)"/><path class="cls-1" d="M22.8,13.84l-0.46-.15a0.3,0.3,0,0,1-.2-0.38l0.23-.7a0.31,0.31,0,0,1,.39-0.19l0.46,0.15a0.3,0.3,0,0,1,.2.38l-0.23.7A0.31,0.31,0,0,1,22.8,13.84Z" transform="translate(-1.32 -1.23)"/><path class="cls-1" d="M23.86,10.5l-0.46-.15a0.3,0.3,0,0,1-.2-0.38l0.23-.7a0.31,0.31,0,0,1,.39-0.19l0.46,0.15a0.3,0.3,0,0,1,.2.38l-0.23.7A0.31,0.31,0,0,1,23.86,10.5Z" transform="translate(-1.32 -1.23)"/><path class="cls-1" d="M25,12.13a1.83,1.83,0,0,1-2.3,1.14A1.77,1.77,0,0,1,21.57,11a1.83,1.83,0,0,1,2.3-1.14A1.77,1.77,0,0,1,25,12.13Z" transform="translate(-1.32 -1.23)"/><path class="cls-2" d="M24.53,11.9a1.33,1.33,0,0,1-1.66.83A1.28,1.28,0,0,1,22,11.1a1.33,1.33,0,0,1,1.66-.83A1.28,1.28,0,0,1,24.53,11.9Z" transform="translate(-1.32 -1.23)"/><path class="cls-1" d="M23.92,11.7a0.68,0.68,0,0,1-.86.42,0.66,0.66,0,0,1-.43-0.84,0.68,0.68,0,0,1,.86-0.42A0.66,0.66,0,0,1,23.92,11.7Z" transform="translate(-1.32 -1.23)"/></svg>