<?xml version="1.0" encoding="utf-8"?>
<!-- Generator: Adobe Illustrator 16.0.0, SVG Export Plug-In . SVG Version: 6.00 Build 0)  -->
<!DOCTYPE svg PUBLIC "-//W3C//DTD SVG 1.1//EN" "http://www.w3.org/Graphics/SVG/1.1/DTD/svg11.dtd">
<svg version="1.1" xmlns="http://www.w3.org/2000/svg" xmlns:xlink="http://www.w3.org/1999/xlink" x="0px" y="0px"
	 width="31.465px" height="31.465px" viewBox="0 0 31.465 31.465" enable-background="new 0 0 31.465 31.465" xml:space="preserve">
<g id="Layer_2">
</g>
<g id="Capa_1">
	<g>
		<g id="XMLID_1_">
			<g>
				<path d="M16.023,17.993v7.29c1.14-0.5,4.94-2.03,8.92-2.03c1.63,0,3.1,0.261,4.37,0.78V5.653c-0.69-0.23-2.59-0.78-4.91-0.78
					c-3.07,0-5.7,0.93-7.85,2.74v10.96L16.023,17.993z M31.463,7.873c0,0.94,0,18.91,0,18.91h-13.58c-0.48,0.44-1.19,0.71-1.97,0.71
					c-0.79,0-1.5-0.27-1.98-0.71H0.003c0,0,0-16.24,0-18.91c0-0.52,0.58-0.83,1.52-1.01v-1.83l0.29-0.12
					c0.1-0.03,2.43-0.94,5.53-0.94c3.33,0,6.2,1.01,8.53,3.01c2.33-2,5.2-3.01,8.53-3.01c3.1,0,5.43,0.91,5.53,0.94l0.29,0.12v1.98
					C30.993,7.183,31.463,7.453,31.463,7.873z M15.723,25.292v-7.3l-0.53,0.58V7.613c-2.15-1.81-4.78-2.74-7.85-2.74
					c-2.33,0-4.22,0.55-4.91,0.78v18.37c1.19-0.48,2.58-0.72,4.16-0.72C10.583,23.303,14.563,24.813,15.723,25.292z"/>
				<path fill="#FFFFFF" d="M29.313,5.653v18.38c-1.271-0.52-2.74-0.78-4.37-0.78c-3.979,0-7.78,1.53-8.92,2.03v-7.29l0.53,0.58
					V7.613c2.149-1.81,4.779-2.74,7.85-2.74C26.723,4.873,28.623,5.423,29.313,5.653z M27.563,8.833l0.18-0.71
					c-4.99-1.32-9.34,1.05-9.52,1.16l0.359,0.63C18.623,9.893,22.853,7.583,27.563,8.833z M27.563,10.903l0.18-0.71
					c-4.99-1.32-9.34,1.05-9.52,1.16l0.359,0.63C18.623,11.963,22.853,9.653,27.563,10.903z M27.563,12.843l0.18-0.7
					c-4.99-1.33-9.34,1.05-9.52,1.15l0.359,0.64C18.623,13.913,22.853,11.603,27.563,12.843z M27.563,14.983l0.18-0.71
					c-4.99-1.33-9.34,1.05-9.52,1.15l0.359,0.64C18.623,16.043,22.853,13.733,27.563,14.983z M27.563,16.953l0.18-0.7
					c-4.99-1.33-9.34,1.051-9.52,1.15l0.359,0.64C18.623,18.023,22.853,15.713,27.563,16.953z M27.563,18.983l0.18-0.71
					c-4.99-1.32-9.34,1.06-9.52,1.16l0.359,0.63C18.623,20.042,22.853,17.733,27.563,18.983z M27.563,21.013l0.18-0.7
					c-4.99-1.33-9.34,1.05-9.52,1.15l0.359,0.64C18.623,22.083,22.853,19.773,27.563,21.013z"/>
				<path d="M27.743,8.123l-0.18,0.71c-4.71-1.25-8.94,1.06-8.98,1.08l-0.359-0.63C18.403,9.173,22.752,6.803,27.743,8.123z"/>
				<path d="M27.743,10.193l-0.18,0.71c-4.71-1.25-8.94,1.06-8.98,1.08l-0.359-0.63C18.403,11.243,22.752,8.873,27.743,10.193z"/>
				<path d="M27.743,12.143l-0.18,0.7c-4.71-1.24-8.94,1.07-8.98,1.09l-0.359-0.64C18.403,13.193,22.752,10.813,27.743,12.143z"/>
				<path d="M27.743,14.273l-0.18,0.71c-4.71-1.25-8.94,1.06-8.98,1.08l-0.359-0.64C18.403,15.323,22.752,12.943,27.743,14.273z"/>
				<path d="M27.743,16.252l-0.18,0.7c-4.71-1.24-8.94,1.07-8.98,1.09l-0.359-0.64C18.403,17.303,22.752,14.923,27.743,16.252z"/>
				<path d="M27.743,18.273l-0.18,0.71c-4.71-1.25-8.94,1.06-8.98,1.08l-0.359-0.63C18.403,19.333,22.752,16.953,27.743,18.273z"/>
				<path d="M27.743,20.313l-0.18,0.7c-4.71-1.24-8.94,1.069-8.98,1.09l-0.359-0.64C18.403,21.363,22.752,18.983,27.743,20.313z"/>
				<path fill="#FFFFFF" d="M15.723,17.993v7.3c-1.16-0.479-5.14-1.989-9.13-1.989c-1.58,0-2.97,0.239-4.16,0.72V5.653
					c0.69-0.23,2.58-0.78,4.91-0.78c3.07,0,5.7,0.93,7.85,2.74v10.96L15.723,17.993z M13.383,9.863l0.36-0.64
					c-0.18-0.1-4.53-2.48-9.53-1.15l0.19,0.7C9.113,7.533,13.343,9.843,13.383,9.863z M13.383,11.933l0.36-0.64
					c-0.18-0.1-4.53-2.48-9.53-1.15l0.19,0.71C9.113,9.603,13.343,11.913,13.383,11.933z M13.383,13.883l0.36-0.64
					c-0.18-0.1-4.53-2.48-9.53-1.16l0.19,0.71C9.113,11.543,13.343,13.853,13.383,13.883z M13.383,16.013l0.36-0.64
					c-0.18-0.1-4.53-2.48-9.53-1.16l0.19,0.71C9.113,13.673,13.343,15.983,13.383,16.013z M13.383,17.983l0.36-0.64
					c-0.18-0.101-4.53-2.47-9.53-1.15l0.19,0.71C9.113,15.653,13.343,17.963,13.383,17.983z M13.383,20.013l0.36-0.641
					c-0.18-0.1-4.53-2.47-9.53-1.149l0.19,0.71C9.113,17.683,13.343,19.993,13.383,20.013z M13.383,22.042l0.36-0.63
					c-0.18-0.1-4.53-2.479-9.53-1.16l0.19,0.711C9.113,19.713,13.343,22.023,13.383,22.042z"/>
				<path d="M13.743,9.223l-0.36,0.64c-0.04-0.02-4.27-2.33-8.98-1.09l-0.19-0.7C9.213,6.743,13.563,9.123,13.743,9.223z"/>
				<path d="M13.743,11.293l-0.36,0.64c-0.04-0.02-4.27-2.33-8.98-1.08l-0.19-0.71C9.213,8.813,13.563,11.193,13.743,11.293z"/>
				<path d="M13.743,13.243l-0.36,0.64c-0.04-0.03-4.27-2.34-8.98-1.09l-0.19-0.71C9.213,10.763,13.563,13.143,13.743,13.243z"/>
				<path d="M13.743,15.373l-0.36,0.64c-0.04-0.03-4.27-2.34-8.98-1.09l-0.19-0.71C9.213,12.893,13.563,15.273,13.743,15.373z"/>
				<path d="M13.743,17.343l-0.36,0.64c-0.04-0.02-4.27-2.33-8.98-1.08l-0.19-0.71C9.213,14.873,13.563,17.243,13.743,17.343z"/>
				<path d="M13.743,19.373l-0.36,0.641c-0.04-0.021-4.27-2.33-8.98-1.08l-0.19-0.71C9.213,16.903,13.563,19.273,13.743,19.373z"/>
				<path d="M13.743,21.413l-0.36,0.63c-0.04-0.02-4.27-2.329-8.98-1.079l-0.19-0.711C9.213,18.933,13.563,21.313,13.743,21.413z"/>
			</g>
			<g>
			</g>
		</g>
	</g>
</g>
</svg>
