<?xml version="1.0" encoding="utf-8"?>
<!-- Generator: Adobe Illustrator 19.2.1, SVG Export Plug-In . SVG Version: 6.00 Build 0)  -->
<svg version="1.1" id="Layer_1" xmlns="http://www.w3.org/2000/svg" xmlns:xlink="http://www.w3.org/1999/xlink" x="0px" y="0px"
	 viewBox="0 0 32 32" style="enable-background:new 0 0 32 32;" xml:space="preserve">
<style type="text/css">
	.st0{fill:#48A2DF;}
	.st1{fill:#4CA1D9;}
</style>
<title>book</title>
<path class="st0" d="M9.3,20.2l8.6,3.9c0.4,0.2,0.9-0.1,0.9-0.6L18.7,8.8c0-0.5-0.5-0.8-0.9-0.5l-8.6,4.6C9,13,8.9,13.2,8.9,13.5
	l0,6.2C9,19.9,9.1,20.1,9.3,20.2z"/>
<g>
	<g>
		<path class="st1" d="M24.4,8.6c2.3,5.1,2.2,10.5,0.5,15.7c-0.2,0.8,1,1.1,1.2,0.3C28,19,28,13.3,25.5,7.9
			C25.2,7.2,24.1,7.8,24.4,8.6L24.4,8.6z"/>
	</g>
</g>
<g>
	<g>
		<path class="st1" d="M22.5,22.4c1.4-4.2,1.4-8.5-0.5-12.5c-0.3-0.7-1.4-0.1-1.1,0.6c1.7,3.7,1.6,7.7,0.4,11.5
			C21,22.8,22.2,23.1,22.5,22.4L22.5,22.4z"/>
	</g>
</g>
</svg>
